# AST/ASF file generated using VICON BodyLanguage
# -----------------------------------------------
:version 1.10
:name VICON
:units
  mass 1.0
  length 0.45
  angle deg
:documentation
   .ast/.asf automatically generated from VICON data using
   VICON BodyBuilder and BodyLanguage model FoxedUp or BRILLIANT.MOD
:root
   order TX TY TZ RX RY RZ
   axis XYZ
   position 0 0 0  
   orientation 0 0 0 
:bonedata
  begin
     id 1 
     name lhipjoint
     direction 0.57768 -0.667037 0.470475 
     length 2.36008 
     axis 0 0 0  XYZ
  end
  begin
     id 2 
     name lfemur
     direction 0.34202 -0.939693 0  
     length 6.97235  
     axis 0 0 20  XYZ
    dof rx ry rz
    limits (-160.0 20.0)
           (-70.0 70.0)
           (-60.0 70.0)
  end
  begin
     id 3 
     name ltibia
     direction 0.34202 -0.939693 0   
     length 6.93428   
     axis 0 0 20   XYZ
    dof rx
    limits (-10.0 170.0)
  end
  begin
     id 4 
     name lfoot
     direction 0.133018 -0.365463 0.921272   
     length 2.18603   
     axis -90 7.62852e-016 20   XYZ
    dof rx rz
    limits (-45.0 90.0)
           (-70.0 20.0)
  end
  begin
     id 5 
     name ltoes
     direction 1.53519e-011 -4.22055e-011 1   
     length 1.07924   
     axis -90 7.62852e-016 20   XYZ
    dof rx
    limits (-90.0 20.0)
  end
  begin
     id 6 
     name rhipjoint
     direction -0.577712 -0.667019 0.470462   
     length 2.36015  
     axis 0 0 0  XYZ 
  end
  begin
     id 7 
     name rfemur
     direction -0.34202 -0.939693 0   
     length 6.71195   
     axis 0 0 -20   XYZ
    dof rx ry rz
    limits (-160.0 20.0)
           (-70.0 70.0)
           (-70.0 60.0)
  end
  begin
     id 8 
     name rtibia
     direction -0.34202 -0.939693 0   
     length 7.04592   
     axis 0 0 -20   XYZ
    dof rx
    limits (-10.0 170.0)
 end
 begin
     id 9 
     name rfoot
     direction -0.113796 -0.312651 0.943027   
     length 2.03846  
     axis -90 -7.62852e-016 -20   XYZ
    dof rx rz
    limits (-45.0 90.0)
           (-20.0 70.0)
  end
  begin
     id 10 
     name rtoes
     direction -1.53586e-011 -4.218e-011 1   
     length 1.01562   
     axis -90 -7.62852e-016 -20   XYZ
    dof rx
    limits (-90.0 20.0)
  end
  begin
     id 11 
     name lowerback
     direction -0.0417299 0.991937 -0.119667   
     length 2.05257   
     axis 0 0 0   XYZ
    dof rx ry rz
    limits (-20.0 45.0)
           (-30.0 30.0)
           (-30.0 30.0)
  end
  begin
     id 12 
     name upperback
     direction -0.00017666 0.999999 0.00105178   
     length 2.05693   
     axis 0 0 0   XYZ
    dof rx ry rz
    limits (-20.0 45.0)
           (-30.0 30.0)
           (-30.0 30.0)
  end
  begin
     id 13 
     name thorax
     direction 0.0185169 0.998203 0.0569866   
     length 2.0932   
     axis 0 0 0   XYZ
    dof rx ry rz
    limits (-20.0 45.0)
           (-30.0 30.0)
           (-30.0 30.0)
  end
  begin
     id 14 
     name lowerneck
     direction -0.0212406 0.982645 0.184277   
     length 1.72509   
     axis 0 0 0   XYZ
    dof rx ry rz
    limits (-20.0 45.0)
           (-30.0 30.0)
           (-30.0 30.0)
  end
  begin
     id 15 
     name upperneck
     direction 0.00528579 0.965323 -0.261004   
     length 1.76294   
     axis 0 0 0   XYZ
    dof rx ry rz
    limits (-20.0 45.0)
           (-30.0 30.0)
           (-30.0 30.0)
  end
  begin
     id 16
     name head
     direction 0.00695421 0.994078 -0.108445  
     length 1.78678  
     axis 0 0 0   XYZ
    dof rx ry rz
    limits (-20.0 45.0)
           (-30.0 30.0)
           (-30.0 30.0)
  end
  begin
     id 17 
     name lclavicle
     direction 0.97277 0.211305 -0.095232  
     length 3.84823  
     axis 0 0 0   XYZ
    dof ry rz
    limits (-20.0 10.0)
           (0.0 20.0)
  end
  begin
     id 18 
     name lhumerus
     direction 1 -4.48957e-011 -1.98313e-027   
     length 4.97185   
     axis 180 -30 -90   XYZ
    dof rx ry rz
    limits (-60.0 90.0)
           (-90.0 90.0)
           (-90.0 90.0)
  end
  begin
     id 19
     name lradius
     direction 1 -4.4898e-011 7.31063e-027   
     length 3.35811   
     axis 180 -30 -90   XYZ
    dof rx
    limits (-10.0 170.0)
  end
  begin
     id 20
     name lwrist
     direction 1 -4.48938e-011 9.95048e-027   
     length 1.67905   
     axis -8.75986e-015 90 90   XYZ
    dof ry
    limits (-180.0 0.0)
 end
  begin
     id 21 
     name lhand
     direction 1 -4.4901e-011 1.9901e-026   
     length 0.622776   
     axis -1.26985e-014 90 90   XYZ
    dof rx rz
    limits (-90.0 90.0)
           (-45.0 45.0)
  end
  begin
     id 22 
     name lfingers
     direction 1 -4.48961e-011 3.98019e-026   
     length 0.502098   
     axis -2.5397e-014 90 90   XYZ
    dof rx
    limits (0.0 90.0)
  end
  begin
     id 23
     name lthumb
     direction 0.707107 -6.34933e-011 0.707107   
     length 0.720915   
     axis -90 45 2.85299e-015   XYZ
    dof rx rz
    limits (-45.0 45.0)
           (-45.0 45.0)
  end
  begin
     id 24 
     name rclavicle
     direction -0.990867 0.133739 -0.0172226   
     length 3.78845  
     axis 0 0 0   XYZ 
    dof ry rz
    limits (-10.0 20.0)
           (-20.0 0.0)
  end
  begin
     id 25 
     name rhumerus
     direction -1 -4.48972e-011 -1.99267e-027  
     length 4.96493   
     axis 180 30 90   XYZ
    dof rx ry rz
    limits (-90.0 60.0)
           (-90.0 90.0)
           (-90.0 90.0)
  end
  begin
     id 26 
     name rradius
     direction -1 -4.48969e-011 8.96093e-027   
     length 3.34929   
     axis 180 30 90   XYZ
    dof rx
    limits (-10.0 170.0)
  end
  begin
     id 27 
     name rwrist
     direction -1 -4.48953e-011 9.95048e-027   
     length 1.67464   
     axis -8.75986e-015 -90 -90   XYZ
    dof ry
    limits (-180.0 0.0)
  end
  begin
     id 28
     name rhand
     direction -1 -4.49001e-011 1.9901e-026   
     length 0.638041   
     axis -1.26985e-014 -90 -90   XYZ
    dof rx rz
    limits (-90.0 90.0)
           (-45.0 45.0)
  end
  begin
     id 29
     name rfingers
     direction -1 -4.48967e-011 3.98019e-026   
     length 0.514405   
     axis -2.5397e-014 -90 -90   XYZ
    dof rx
    limits (0.0 90.0)
  end
  begin
     id 30
     name rthumb
     direction -0.707107 -6.34904e-011 0.707107   
     length 0.738586   
     axis -90 -45 -2.85299e-015   XYZ
    dof rx rz
    limits (-45.0 45.0)
           (-45.0 45.0)
  end
:hierarchy
  begin
    root lhipjoint rhipjoint lowerback
    lhipjoint lfemur
    lfemur ltibia
    ltibia lfoot
    lfoot ltoes
    rhipjoint rfemur
    rfemur rtibia
    rtibia rfoot
    rfoot rtoes
    lowerback upperback
    upperback thorax
    thorax lowerneck lclavicle rclavicle
    lowerneck upperneck
    upperneck head
    lclavicle lhumerus
    lhumerus lradius
    lradius lwrist
    lwrist lhand lthumb
    lhand lfingers
    rclavicle rhumerus
    rhumerus rradius
    rradius rwrist
    rwrist rhand rthumb
    rhand rfingers
  end

#!OML:ASF E:\Mandelcareful walks\Project 1\Capture day 1\Session 1\Subject1.ASF
:FULLY-SPECIFIED
:DEGREES
246
root -14.9648 14.3465 -14.7577 390.407 38.5736 733.98
lowerback 29.1041 -3.26238 3.83837
upperback 5.55437 -2.62002 1.20248
thorax -9.91077 -1.20171 0.0849157
lowerneck -35.6046 -2.65173 -2.9337
upperneck 8.86653 -1.35465 -3.79512
head 8.18551 -1.18386 -1.11736
rclavicle -5.08889e-014 2.62396e-014
rhumerus -20.9783 33.1059 -85.5435
rradius 48.0739
rwrist -63.299
rhand 10.3562 -38.9834
rfingers 7.12502
rthumb 35.4641 -65.4298
lclavicle -5.08889e-014 2.62396e-014
lhumerus -7.86882 -78.7697 99.9567
lradius 63.0781
lwrist 3.87083
lhand -30.2824 -10.9598
lfingers 7.12502
lthumb -3.59017 18.9897
rfemur -62.3253 -12.2498 7.88514
rtibia 75.5704
rfoot -30.4414 -13.2082
rtoes -4.99325
lfemur -67.6562 32.6804 -40.7421
ltibia 88.9556
lfoot -11.4556 1.88091
ltoes -19.6712
247
root -14.8912 14.3302 -14.7425 390.226 37.6194 734.259
lowerback 29.5414 -3.3848 3.44455
upperback 5.51021 -2.84043 1.42231
thorax -10.1546 -1.28789 0.661026
lowerneck -34.8191 -1.86611 -2.99899
upperneck 9.12846 -0.176726 -4.58267
head 8.19433 -0.726457 -1.192
rclavicle -7.95139e-015 -1.74931e-014
rhumerus -21.13 34.8959 -84.9926
rradius 48.59
rwrist -63.9178
rhand 11.7116 -38.2805
rfingers 7.12502
rthumb 36.7479 -64.4098
lclavicle -7.95139e-015 -1.74931e-014
lhumerus -8.07257 -76.9891 100.393
lradius 62.8244
lwrist 1.7601
lhand -28.5132 -12.8825
lfingers 7.12502
lthumb -1.88159 17.0889
rfemur -62.132 -12.2152 7.19841
rtibia 75.9641
rfoot -30.875 -12.4398
rtoes -7.1702
lfemur -67.2728 32.6558 -38.8657
ltibia 87.6142
lfoot -11.6686 4.01728
ltoes -20.3772
248
root -14.8169 14.3154 -14.7306 390.293 36.785 734.759
lowerback 29.7191 -3.11865 3.82797
upperback 5.87758 -2.44574 0.860956
thorax -9.85412 -1.11669 -0.347733
lowerneck -35.6831 -1.27723 -1.64532
upperneck 10.1674 0.331083 -5.86541
head 8.70567 -0.625779 -1.80165
rclavicle -7.95139e-014 -3.18055e-015
rhumerus -20.6868 33.3778 -84.6345
rradius 49.1415
rwrist -64.2611
rhand 11.8263 -38.7056
rfingers 7.12502
rthumb 36.8564 -64.8071
lclavicle -7.95139e-014 -3.18055e-015
lhumerus -4.90338 -78.7936 96.8046
lradius 63.1253
lwrist 1.51875
lhand -28.0592 -14.0784
lfingers 7.12502
lthumb -1.44306 15.8964
rfemur -62.0725 -12.52 6.45905
rtibia 76.3237
rfoot -31.4069 -11.6351
rtoes -9.60895
lfemur -66.544 31.997 -36.7366
ltibia 85.3247
lfoot -10.8685 5.48951
ltoes -12.9193
249
root -14.7364 14.2998 -14.7263 390.519 35.9897 735.276
lowerback 29.8123 -2.90497 4.30137
upperback 6.14717 -2.1039 0.231943
thorax -9.61726 -0.971381 -1.46376
lowerneck -36.255 -0.437672 -0.210278
upperneck 11.1198 1.1573 -7.33428
head 9.19551 -0.394069 -2.42724
rclavicle 7.95139e-015 2.22639e-014
rhumerus -20.6956 31.7601 -84.5183
rradius 50.139
rwrist -64.5228
rhand 10.498 -39.7979
rfingers 7.12502
rthumb 35.5985 -66.212
lclavicle 7.95139e-015 2.22639e-014
lhumerus -1.30917 -80.6817 92.6842
lradius 63.673
lwrist 1.73781
lhand -28.2173 -14.3177
lfingers 7.12502
lthumb -1.59576 15.6561
rfemur -62.1907 -12.8453 5.57162
rtibia 76.8324
rfoot -32.2029 -10.3154
rtoes -7.61801
lfemur -65.6802 30.9299 -34.4835
ltibia 82.2909
lfoot -13.1895 5.33657
ltoes -17.5992
250
root -14.6461 14.2835 -14.7213 390.439 35.1647 735.461
lowerback 30.0953 -2.87349 4.55027
upperback 6.18255 -2.01194 -0.0795899
thorax -9.72823 -0.940029 -1.98933
lowerneck -35.7561 0.718389 0.701035
upperneck 11.8431 2.62153 -8.7699
head 9.50662 0.136764 -2.84399
rclavicle -6.36111e-015 4.77083e-015
rhumerus -21.4192 31.5814 -84.5431
rradius 51.4161
rwrist -64.586
rhand 10.0875 -40.3741
rfingers 7.12502
rthumb 35.2093 -66.881
lclavicle -6.36111e-015 4.77083e-015
lhumerus -1.55714 -81.2389 92.6
lradius 64.1749
lwrist 2.11204
lhand -28.5446 -14.545
lfingers 7.12502
lthumb -1.91188 15.4262
rfemur -62.1457 -12.9707 4.87564
rtibia 77.1936
rfoot -32.5915 -9.21372
rtoes 1.89836
lfemur -64.4981 29.9095 -31.9007
ltibia 78.6304
lfoot -13.8189 5.77036
ltoes -18.1223
251
root -14.6127 14.243 -14.7441 391.192 35.3789 736.178
lowerback 30.3644 -3.12738 4.86322
upperback 6.03407 -2.24311 -0.292387
thorax -10.0658 -1.06464 -2.31604
lowerneck -35.6804 2.08066 1.74765
upperneck 12.8267 4.40148 -10.3447
head 10.0448 0.78227 -3.28636
rclavicle 7.95139e-015 -1.74931e-014
rhumerus -22.291 31.1597 -84.623
rradius 53.0221
rwrist -64.9035
rhand 10.5227 -40.5515
rfingers 7.12502
rthumb 35.6219 -66.96
lclavicle 7.95139e-015 -1.74931e-014
lhumerus -1.1873 -81.9607 91.8252
lradius 64.7187
lwrist 2.42788
lhand -28.7022 -14.9901
lfingers 7.12502
lthumb -2.06408 14.9797
rfemur -62.7235 -13.9735 4.53368
rtibia 77.758
rfoot -32.5632 -8.85866
rtoes -2.97571
lfemur -64.1263 27.9334 -29.5307
ltibia 74.5391
lfoot -13.7454 5.832
ltoes -19.6896
